<?xml version="1.0" encoding="utf-8"?>
<!-- 2023 (c) joshybigmac -->
<!-- Generator: Adobe Illustrator 27.3.1, SVG Export Plug-In . SVG Version: 6.00 Build 0)  -->
<svg version="1.1" id="Layer_1" xmlns="http://www.w3.org/2000/svg" xmlns:xlink="http://www.w3.org/1999/xlink" x="0px" y="0px"
	 viewBox="0 0 500 500" style="enable-background:new 0 0 500 500;" xml:space="preserve">
<style type="text/css">
	.st0{fill:#8A040B;}
	.st1{fill:#FFFFFF;}
</style>
<circle class="st0" cx="250" cy="250" r="250"/>
<path id="monogram" class="st1" d="M275.1,108.2c-0.1,0-0.1,0-0.2,0c4,0,7.4,0,9.5,0H275.1L275.1,108.2z M284.4,108.2
	c-2.1,0-5.5,0-9.5,0c0.1,0,0.1,0,0.2,0H284.4L284.4,108.2z M233.7,135.4c-5,18.1-12.4,48.5-17.6,69.3
	c-7.4,29.3-18.5,100.4-47.6,136.8c-21.5,26.8-48.5,46.1-80.8,49.8c-31.5,3.6-36.5-13.8-34.3-27.5c1.7-9.9,7.6-18,11.7-21.5l0.8,0.3
	c-1.3,14,2.9,37.6,35.4,34.1c35.2-3.8,53.1-29.1,61.7-46.4c13.9-28.2,25.6-90.8,34.6-127.6c7.4-29.7,18.3-83.7,27.5-88.8
	c-14.4,0-33.8,1.5-52.3,8.5c-22.5,8.8-42.9,23.9-47.8,59.4c-5.5,40.2,17.9,52.4,28.2,55.6c1.8,0.6,1.2,3.1-1.3,2.9
	c-23.2-1.7-51.4-13.8-47-55.5c3.5-33.1,30-56.3,64.3-68c19.8-6.9,47.7-8.1,62-8.3c1.4,0,2.6,0,3.7-0.1c5.4,0,26.4-0.1,40-0.1
	c4,0,7.4,0,9.5,0h2.2c0.5,0,0.9,0.4,1,0.9c0,0.1,0,0.2,0,0.3c0,0.5-0.3,1-1,1.2c-0.1,0-0.2,0.1-0.3,0.1c-0.4,0.1-1,0.2-1.6,0.2
	c-10.4,1.1-44.8,1.3-50.2,21.6C234.2,133.5,234,134.4,233.7,135.4L233.7,135.4z M447,109.4v1.5c0,0.6-0.5,1.1-1.1,1.2l-11,0.6
	c-7.5,0.6-12.4,2.8-14.7,6.7c-2.3,3.8-7.5,15.4-15.5,34.8s-14.8,35.9-20.3,49.5c-5.5,13.6-10.3,25.8-14.4,36.6
	c-4,10.8-6.6,17.9-7.7,21.1s-1.6,5.4-1.6,6.3c0,3.1,1.7,5.1,5.1,5.8c3.3,0.8,8.9,1.1,16.8,1.2c0.6,0,1.2,0.5,1.2,1.2v1.4
	c0,0.6-0.5,1.2-1.2,1.2H274.1c-0.6,0-1.2-0.5-1.2-1.2v-1.5c0-0.6,0.5-1.1,1.1-1.2l11.8-0.9c5.8-0.6,10-2.4,12.7-5.5s6.3-9.7,10.9-20
	c4.5-10.3,9.8-22.9,15.8-37.9c6-15,12.6-31.8,19.8-50.3c7-17.8,12.2-31.1,15.6-39.8c0.2-0.6,0-1.2-0.6-1.5c-0.2-0.1-0.4-0.1-0.5-0.1
	c-0.4,0-0.7,0.2-1,0.5L249.9,277.9c-0.2,0.3-0.6,0.5-1,0.5h-14.1c-0.6,0-1.2-0.5-1.2-1.2V163.8c0-10.2,1.4-20.4,4.1-30.2
	c0,0,0-0.1,0-0.1c4.2-15.7,30.2-17.7,42.8-18.7c2.7-0.2,4.8-0.4,6.2-0.6c0.3,0,0.5-0.1,0.8-0.2v95.7c0,1.1,1.5,1.6,2.1,0.7
	l69.9-101.6c0.2-0.3,0.6-0.5,1-0.5h85.3C446.5,108.2,447,108.8,447,109.4L447,109.4z"/>
</svg>
