<?xml version="1.0" encoding="UTF-8"?>
<!-- 2023 (c) joshybigmac -->
<svg id="Layer_1" data-name="Layer 1" xmlns="http://www.w3.org/2000/svg" xmlns:xlink="http://www.w3.org/1999/xlink" viewBox="0 0 500 300">
  <defs>
    <style>
      .cls-1 {
        fill: white;
      }
    </style>
    <mask id="mask" x="-2050" y="395.5" width="5781.23" height="1326.79" maskUnits="userSpaceOnUse"/>
  </defs>
  <path class="cls-1" d="m275.15,8.23c-.07.01-.14.01-.21.02,4.04-.01,7.42-.02,9.51-.02h-9.3Zm9.3,0c-2.09,0-5.47.01-9.51.02.07-.01.14-.01.21-.02h9.3Zm-50.74,27.2c-4.96,18.11-12.38,48.55-17.6,69.28-7.37,29.29-18.46,100.42-47.61,136.76-21.47,26.76-48.49,46.14-80.78,49.83-31.54,3.62-36.48-13.79-34.29-27.55,1.68-9.85,7.62-17.99,11.72-21.54l.77.33c-1.3,14.05,2.88,37.63,35.45,34.1,35.2-3.83,53.12-29.1,61.67-46.4,13.94-28.21,25.6-90.84,34.64-127.6,7.39-29.73,18.3-83.67,27.47-88.8-14.38.05-33.79,1.53-52.31,8.55-22.5,8.75-42.86,23.9-47.81,59.41-5.47,40.25,17.95,52.4,28.2,55.6,1.76.58,1.24,3.05-1.27,2.85-23.2-1.74-51.37-13.76-46.99-55.49,3.48-33.1,30.01-56.33,64.28-68.04,19.84-6.86,47.67-8.13,62-8.34,1.38-.02,2.63-.03,3.73-.05,5.41-.04,26.42-.06,39.95-.07,4.04-.01,7.42-.02,9.51-.02h2.18c.53,0,.89.42.97.91.01.09.02.17.02.26-.01.51-.32,1.04-.99,1.25-.09.04-.2.06-.3.07-.43.08-.96.15-1.58.21-10.43,1.13-44.81,1.27-50.25,21.63-.26.91-.53,1.87-.79,2.87Zm213.31-26.03v1.47c0,.62-.48,1.12-1.1,1.17l-11.04.63c-7.47.63-12.37,2.85-14.7,6.65-2.33,3.82-7.5,15.4-15.52,34.77-8.02,19.37-14.78,35.87-20.3,49.48-5.52,13.62-10.3,25.83-14.35,36.64-4.05,10.82-6.62,17.85-7.7,21.12s-1.63,5.37-1.63,6.3c0,3.12,1.72,5.06,5.13,5.83,3.27.75,8.86,1.13,16.79,1.17.65,0,1.18.53,1.18,1.17v1.4c0,.64-.53,1.17-1.17,1.17h-108.52c-.64,0-1.17-.53-1.17-1.17v-1.48c0-.61.48-1.12,1.09-1.17l11.75-.85c5.75-.62,10-2.45,12.72-5.48,2.72-3.03,6.34-9.69,10.85-19.95,4.52-10.27,9.77-22.91,15.75-37.92,5.99-15.01,12.6-31.77,19.84-50.29,6.97-17.83,12.17-31.11,15.6-39.85.22-.57-.04-1.2-.57-1.47-.16-.08-.35-.12-.53-.12-.37,0-.74.18-.96.5l-108.53,158.74c-.22.33-.58.51-.97.51h-14.08c-.64,0-1.17-.53-1.17-1.17V63.82c0-10.22,1.38-20.4,4.14-30.23.01-.04.02-.09.04-.13,4.18-15.66,30.23-17.69,42.77-18.66,2.7-.21,4.84-.37,6.21-.62.27-.04.51-.09.76-.18v95.72c0,1.14,1.48,1.6,2.14.65L359.62,8.74c.22-.33.58-.51.97-.51h85.26c.64,0,1.17.53,1.17,1.17Z"/>
</svg>